<svg width="207" height="173" viewBox="0 0 207 173" fill="none" xmlns="http://www.w3.org/2000/svg">
<path d="M102.116 146.1L160.645 90.976L141.136 109.351L121.626 127.725L102.116 146.1ZM102.116 146.1L4.39798 60.9918C2.61448 59.4385 2.56089 56.6852 4.28262 55.0636L56.9591 5.45147C58.456 4.04163 60.778 3.99644 62.3287 5.34697L100.016 38.1708" fill="#923CFF"/>
<path d="M102.116 146.1L4.39798 60.9918C2.61448 59.4385 2.56089 56.6852 4.28262 55.0636L56.9591 5.45147C58.456 4.04163 60.778 3.99644 62.3287 5.34697L100.016 38.1708M102.116 146.1L160.645 90.976L141.136 109.351L121.626 127.725L102.116 146.1Z" stroke="#923CFF" stroke-width="6" stroke-linecap="round" stroke-linejoin="round"/>
<path d="M91.0891 50.4654L181.852 78.0796L102.023 144.704L91.0891 50.4654Z" fill="#923CFF"/>
<path d="M119.131 126.654L103.031 112.631" stroke="white" stroke-width="6" stroke-linecap="round" stroke-linejoin="round"/>
<path d="M139.855 107.135L123.755 93.1121" stroke="white" stroke-width="6" stroke-linecap="round" stroke-linejoin="round"/>
<path d="M53.5157 76.8799L133.365 5.86696C134.836 4.55824 137.041 4.51532 138.563 5.7658L200.462 56.6431C202.36 58.2031 202.416 61.0895 200.58 62.7222L162.682 96.4263C161.21 97.735 159.005 97.7779 157.484 96.5274L117.332 63.5248C115.811 62.2743 113.605 62.3172 112.134 63.6259L83.7321 88.8846C82.5195 89.9631 80.7756 90.202 79.3176 89.4895L53.5157 76.8799ZM53.5157 76.8799L91.9713 42.6798Z" fill="white"/>
<path d="M53.5157 76.8799L133.365 5.86696C134.836 4.55824 137.041 4.51532 138.563 5.7658L200.462 56.6431C202.36 58.2031 202.416 61.0895 200.58 62.7222L162.682 96.4263C161.21 97.735 159.005 97.7779 157.484 96.5274L117.332 63.5248C115.811 62.2743 113.605 62.3172 112.134 63.6259L83.7321 88.8846C82.5195 89.9631 80.7756 90.202 79.3176 89.4895L53.5157 76.8799ZM53.5157 76.8799L91.9713 42.6798" stroke="#923CFF" stroke-width="6" stroke-linecap="round" stroke-linejoin="round"/>
</svg>
