<svg width="215" height="159" viewBox="0 0 215 159" fill="none" xmlns="http://www.w3.org/2000/svg">
<path d="M109.286 155.718L5.27684 65.1315C3.49333 63.5781 3.43975 60.8248 5.16147 59.2033L61.4817 6.15936C62.9786 4.74952 65.3006 4.70433 66.8512 6.05487L107.055 41.0703M109.286 155.718L171.458 97.1628L150.734 116.681L130.01 136.2L109.286 155.718Z" stroke="#923CFF" stroke-width="6" stroke-linecap="round" stroke-linejoin="round"/>
<path d="M70.7876 75.2278L107.055 41.0703M99.5017 87.1006L125.885 62.2518C127.382 60.842 129.704 60.7968 131.255 62.1474L168.726 94.7833C170.277 96.1338 172.599 96.0886 174.096 94.6788L209.692 61.1534C211.414 59.5319 211.36 56.7786 209.577 55.2252L151.235 4.41272C149.685 3.06219 147.363 3.10737 145.866 4.51721L74.8932 71.3611C72.887 73.2506 73.3478 76.5553 75.7944 77.8239L94.918 87.7398C96.4265 88.522 98.2647 88.2657 99.5017 87.1006Z" stroke="#923CFF" stroke-width="6" stroke-linecap="round" stroke-linejoin="round"/>
<path d="M130.01 136.2L113.909 122.177" stroke="#923CFF" stroke-width="6" stroke-linecap="round" stroke-linejoin="round"/>
<path d="M150.734 116.681L134.633 102.658" stroke="#923CFF" stroke-width="6" stroke-linecap="round" stroke-linejoin="round"/>
</svg>
