<svg width="211" height="112" viewBox="0 0 211 112" fill="none" xmlns="http://www.w3.org/2000/svg">
<path d="M148.4 84H140V14C139.996 10.2883 138.519 6.72973 135.895 4.10513C133.27 1.48053 129.712 0.00418718 126 0H25.2C21.4883 0.00418718 17.9297 1.48053 15.3051 4.10513C12.6805 6.72973 11.2042 10.2883 11.2 14V84H2.8C2.05741 84 1.34524 84.295 0.820142 84.8201C0.295048 85.3452 3.7127e-05 86.0574 0 86.8V98C0.00418718 101.712 1.48053 105.27 4.10513 107.895C6.72973 110.519 10.2883 111.996 14 112H137.2C140.912 111.996 144.47 110.519 147.095 107.895C149.719 105.27 151.196 101.712 151.2 98V86.8C151.2 86.0574 150.905 85.3452 150.38 84.8201C149.855 84.295 149.143 84 148.4 84V84ZM16.8 14C16.8025 11.7729 17.6883 9.63782 19.2631 8.06305C20.8378 6.48829 22.9729 5.60249 25.2 5.6H126C128.227 5.60249 130.362 6.48829 131.937 8.06305C133.512 9.63782 134.398 11.7729 134.4 14V84H16.8V14ZM145.6 98C145.598 100.227 144.712 102.362 143.137 103.937C141.562 105.512 139.427 106.398 137.2 106.4H14C11.7729 106.398 9.63782 105.512 8.06305 103.937C6.48828 102.362 5.60249 100.227 5.6 98V89.6H145.6V98ZM89.6 25.2C89.6 25.9426 89.305 26.6548 88.7799 27.1799C88.2548 27.705 87.5426 28 86.8 28H64.4C63.6574 28 62.9452 27.705 62.4201 27.1799C61.895 26.6548 61.6 25.9426 61.6 25.2C61.6 24.4574 61.895 23.7452 62.4201 23.2201C62.9452 22.695 63.6574 22.4 64.4 22.4H86.8C87.5426 22.4 88.2548 22.695 88.7799 23.2201C89.305 23.7452 89.6 24.4574 89.6 25.2V25.2Z" fill="#923CFF"/>
<path fill-rule="evenodd" clip-rule="evenodd" d="M199 22H163C161.409 22 159.883 22.6321 158.757 23.7574C157.632 24.8826 157 26.4087 157 28V100C157 101.591 157.632 103.117 158.757 104.243C159.883 105.368 161.409 106 163 106H199C200.591 106 202.117 105.368 203.243 104.243C204.368 103.117 205 101.591 205 100V28C205 26.4087 204.368 24.8826 203.243 23.7574C202.117 22.6321 200.591 22 199 22ZM163 16C159.817 16 156.765 17.2643 154.515 19.5147C152.264 21.7652 151 24.8174 151 28V100C151 103.183 152.264 106.235 154.515 108.485C156.765 110.736 159.817 112 163 112H199C202.183 112 205.235 110.736 207.485 108.485C209.736 106.235 211 103.183 211 100V28C211 24.8174 209.736 21.7652 207.485 19.5147C205.235 17.2643 202.183 16 199 16H163Z" fill="#923CFF"/>
<path fill-rule="evenodd" clip-rule="evenodd" d="M181 100C182.591 100 184.117 99.3679 185.243 98.2426C186.368 97.1174 187 95.5913 187 94C187 92.4087 186.368 90.8826 185.243 89.7574C184.117 88.6321 182.591 88 181 88C179.409 88 177.883 88.6321 176.757 89.7574C175.632 90.8826 175 92.4087 175 94C175 95.5913 175.632 97.1174 176.757 98.2426C177.883 99.3679 179.409 100 181 100Z" fill="#923CFF"/>
</svg>
