<svg width="150" height="136" viewBox="0 0 150 136" fill="none" xmlns="http://www.w3.org/2000/svg">
<path d="M148.5 68C148.5 104.592 115.735 134.5 75 134.5C34.2654 134.5 1.5 104.592 1.5 68C1.5 31.408 34.2654 1.5 75 1.5C115.735 1.5 148.5 31.408 148.5 68Z" fill="#923CFF" stroke="#923CFF" stroke-width="3"/>
<path d="M76.7579 63.4667C67.2 61.0351 64.1263 58.5212 64.1263 54.6061C64.1263 50.1139 68.3789 46.9818 75.4947 46.9818C82.9895 46.9818 85.7684 50.4848 86.021 55.6364H95.3263C95.0316 48.5479 90.6105 42.0364 81.8105 39.9345V30.9091H69.1789V39.8109C61.0105 41.5418 54.4421 46.7345 54.4421 54.6885C54.4421 64.2085 62.4842 68.9479 74.2316 71.7091C84.7579 74.1818 86.8632 77.8085 86.8632 81.6412C86.8632 84.4848 84.8 89.0182 75.4947 89.0182C66.821 89.0182 63.4105 85.2267 62.9474 80.3636H53.6842C54.1895 89.3891 61.0947 94.4582 69.1789 96.1479V105.091H81.8105V96.2303C90.021 94.7055 96.5474 90.0485 96.5474 81.6C96.5474 69.8958 86.3158 65.8982 76.7579 63.4667Z" fill="white"/>
</svg>
