<svg width="59" height="47" viewBox="0 0 59 47" fill="none" xmlns="http://www.w3.org/2000/svg">
<path d="M23.9083 14.824C23.8148 14.8445 23.7152 14.8442 23.6161 14.8186C21.5467 14.2906 19.433 13.9947 17.3334 13.9399C15.2367 13.8853 13.1382 14.0704 11.0965 14.4901C10.7534 14.5605 10.4179 14.3396 10.3472 13.9963C10.2767 13.6529 10.5009 13.3289 10.841 13.247C12.9774 12.8078 15.1728 12.614 17.3664 12.6713C19.5606 12.7285 21.7691 13.0372 23.9299 13.5888C24.2692 13.6756 24.4742 14.0209 24.3878 14.3605C24.3265 14.6015 24.1351 14.7743 23.9083 14.824Z" fill="#544955"/>
<path d="M30.8692 14.3001C30.6423 14.3497 30.3963 14.2726 30.24 14.0798C30.0196 13.8074 30.0615 13.408 30.3335 13.1874C32.0665 11.7833 33.9437 10.5801 35.913 9.61142C37.8823 8.64272 39.9578 7.9015 42.0823 7.4078C42.4202 7.34084 42.7648 7.54079 42.844 7.88226C42.9234 8.22343 42.7107 8.56461 42.3696 8.64398C40.3393 9.11576 38.3556 9.8244 36.473 10.7502C34.5886 11.6772 32.7917 12.829 31.1325 14.1736C31.053 14.2377 30.9626 14.2796 30.8692 14.3001Z" fill="#544955"/>
<path d="M24.8652 20.195C24.7718 20.2155 24.6722 20.2152 24.5731 20.1896C22.5037 19.6616 20.39 19.3659 18.2904 19.3112C16.1934 19.2564 14.095 19.4417 12.0535 19.8613C11.7104 19.9318 11.3749 19.7109 11.3042 19.3675C11.2337 19.0242 11.457 18.6962 11.798 18.6182C13.9339 18.1792 16.1296 17.9856 18.3235 18.0428C20.5174 18.1 22.7259 18.4087 24.8869 18.9603C25.2263 19.0471 25.4313 19.3925 25.3448 19.732C25.2834 19.9723 25.0921 20.1454 24.8652 20.195Z" fill="#544955"/>
<path d="M31.8261 18.6711C31.5993 18.7207 31.3532 18.6437 31.197 18.4508C30.9765 18.1784 31.0184 17.779 31.2905 17.5584C33.0237 16.1542 34.9009 14.9511 36.8699 13.9824C38.8392 13.0137 40.9152 12.2722 43.0392 11.7786C43.3742 11.6982 43.7217 11.9116 43.8009 12.253C43.8803 12.5942 43.6676 12.9354 43.3265 13.0147C41.2964 13.4865 39.3128 14.1951 37.4299 15.121C35.5455 16.048 33.7485 17.1998 32.0893 18.5441C32.0099 18.6085 31.9196 18.6506 31.8261 18.6711Z" fill="#544955"/>
<path d="M25.8222 24.566C25.7287 24.5865 25.6291 24.5862 25.53 24.5606C23.4606 24.0324 21.3469 23.7367 19.2476 23.6821C17.1509 23.6273 15.0524 23.8126 13.0105 24.2324C12.6673 24.3028 12.3319 24.0819 12.2611 23.7386C12.1906 23.3952 12.4131 23.0633 12.7549 22.9892C14.8916 22.55 17.087 22.3565 19.2807 22.4138C21.4746 22.4708 23.6828 22.7795 25.8439 23.3313C26.1832 23.4181 26.3882 23.7635 26.3018 24.103C26.2403 24.3433 26.049 24.5164 25.8222 24.566Z" fill="#544955"/>
<path d="M32.7831 23.0421C32.5562 23.0917 32.3102 23.0147 32.1539 22.8218C31.9335 22.5495 31.9754 22.15 32.2474 21.9294C33.9806 20.525 35.8578 19.3218 37.8271 18.3534C39.7959 17.3848 41.8714 16.6433 43.9961 16.1496C44.3315 16.071 44.6787 16.2826 44.7579 16.624C44.8372 16.9652 44.6246 17.3064 44.2834 17.3858C42.2528 17.8576 40.2692 18.5662 38.3871 19.4919C36.5024 20.4187 34.7054 21.5705 33.0463 22.9151C32.9668 22.9795 32.8765 23.0216 32.7831 23.0421Z" fill="#544955"/>
<path d="M26.7791 28.9368C26.6856 28.9573 26.586 28.957 26.4869 28.9314C24.4175 28.4034 22.3039 28.1077 20.2043 28.053C18.1076 27.9983 16.0091 28.1834 13.9674 28.6031C13.6242 28.6736 13.2888 28.4526 13.218 28.1093C13.1481 27.7687 13.3652 27.4359 13.7036 27.3618C13.7066 27.3611 13.7088 27.3606 13.7118 27.36C15.8483 26.9208 18.0436 26.7271 20.2373 26.7843C22.4312 26.8416 24.6397 27.1503 26.8007 27.7018C27.1401 27.7886 27.3451 28.134 27.2586 28.4735C27.1972 28.7141 27.0059 28.8871 26.7791 28.9368Z" fill="#544955"/>
<path d="M33.74 27.4129C33.5131 27.4625 33.2671 27.3854 33.1108 27.1926C32.8903 26.9202 32.9323 26.5208 33.2043 26.3002C34.9375 24.896 36.8147 23.6929 38.7838 22.7242C40.7528 21.7556 42.8286 21.0143 44.9531 20.5206C45.2889 20.444 45.6356 20.6536 45.7148 20.9951C45.7942 21.3362 45.5815 21.6774 45.2404 21.7568C43.21 22.2286 41.2264 22.9372 39.3438 23.863C37.4594 24.79 35.6624 25.9418 34.0032 27.2861C33.9238 27.3505 33.8334 27.3924 33.74 27.4129Z" fill="#544955"/>
<path d="M50.383 1.93885L46.2475 2.84423C45.9051 2.91919 45.6884 3.25737 45.7634 3.59976C45.8383 3.94215 46.1765 4.15885 46.5189 4.08389L50.0346 3.3142L56.7862 34.1533L8.65743 44.6901L1.90582 13.851L4.8381 13.2091C5.18049 13.1341 5.39718 12.7959 5.32222 12.4536C5.24726 12.1112 4.90909 11.8945 4.5667 11.9694L1.0146 12.7471C0.672208 12.8221 0.455513 13.1602 0.530473 13.5026L7.55348 45.5813C7.62844 45.9237 7.96661 46.1404 8.309 46.0655L57.6771 35.2573C58.0195 35.1823 58.2362 34.8441 58.1613 34.5017L51.1383 2.42303C51.0636 2.08059 50.7251 1.86395 50.383 1.93885Z" fill="#544955"/>
<path d="M12.4565 37.2209C17.8683 36.0361 23.359 35.8325 28.811 36.6111L11.1105 40.4863L5.60836 15.3543C5.5334 15.012 5.19523 14.7953 4.85284 14.8702C4.51045 14.9452 4.29375 15.2833 4.36871 15.6257L10.0066 41.3775C10.0815 41.7199 10.4197 41.9366 10.7621 41.8617L53.6922 32.4629C54.0346 32.388 54.2513 32.0498 54.1763 31.7074L48.5385 5.95564C48.4635 5.61324 48.1254 5.39655 47.783 5.47151C47.4406 5.54647 47.2239 5.88464 47.2988 6.22703L52.801 31.359L35.1003 35.2342C39.7281 32.2488 44.8017 30.1396 50.2135 28.9548C50.5559 28.8798 50.7726 28.5416 50.6977 28.1992L44.938 1.89084C44.9017 1.72523 44.8005 1.5811 44.6575 1.4903C44.514 1.39961 44.3313 1.37723 44.1755 1.40824L43.6378 1.53244C37.3167 2.99142 31.4611 5.67847 26.2327 9.51946L26.1832 9.55575L26.1228 9.54325C22.9775 8.89746 19.7548 8.57129 16.5431 8.57423C13.3343 8.57731 10.1148 8.90881 6.97291 9.5595L6.43255 9.67131C6.27847 9.70686 6.12119 9.80495 6.02894 9.94726C5.93668 10.0896 5.90523 10.2627 5.94148 10.4284L11.7012 36.7367C11.7759 37.0792 12.1143 37.2958 12.4565 37.2209ZM49.3235 27.855C43.2446 29.2695 37.5895 31.8279 32.505 35.4644L27.0398 10.5013C32.0896 6.80276 37.7393 4.20861 43.8358 2.7892L49.3235 27.855V27.855ZM7.31816 10.784C10.348 10.1628 13.4513 9.84635 16.5443 9.84342C19.6466 9.84052 22.7603 10.1531 25.8001 10.7727L31.2653 35.7358C25.1265 34.5565 18.9197 34.5952 12.8058 35.8498L7.31816 10.784V10.784Z" fill="#544955"/>
</svg>
