<svg width="45" height="52" viewBox="0 0 45 52" fill="none" xmlns="http://www.w3.org/2000/svg">
<path d="M12.3683 16.7844L22.2521 15.5474C22.5933 15.5047 22.8379 15.2152 22.7986 14.9008L21.9436 8.06933C21.9043 7.7549 21.5958 7.53466 21.2546 7.57736L11.3708 8.81436C11.0296 8.85707 10.7849 9.14654 10.8243 9.46097L11.6793 16.2924C11.7186 16.6067 12.0271 16.8271 12.3683 16.7844ZM12.131 9.87563L20.7794 8.79325L21.4919 14.4861L12.8435 15.5685L12.131 9.87563Z" fill="#544955"/>
<path d="M24.7231 15.2381L34.6069 14.0011C34.9481 13.9584 35.1927 13.669 35.1534 13.3545L34.2984 6.52307C34.259 6.20864 33.9506 5.98839 33.6094 6.03109L23.7256 7.2681C23.3844 7.3108 23.1397 7.60027 23.1791 7.9147L24.0341 14.7462C24.0734 15.0604 24.3819 15.2809 24.7231 15.2381ZM24.4858 8.32937L33.1342 7.24698L33.8467 12.9399L25.1983 14.0223L24.4858 8.32937Z" fill="#544955"/>
<path d="M14.6483 35.0017L24.5321 33.7647C24.8733 33.722 25.1179 33.4325 25.0786 33.1181L24.2236 26.2864C24.1842 25.972 23.8758 25.7517 23.5346 25.7944L13.6507 27.0314C13.3096 27.0741 13.0649 27.3636 13.1042 27.678L13.9593 34.5097C13.9986 34.8241 14.3071 35.0444 14.6483 35.0017ZM14.411 28.0927L23.0593 27.0103L23.7718 32.7034L15.1235 33.7858L14.411 28.0927Z" fill="#544955"/>
<path d="M27.003 33.4554L36.8869 32.2184C37.2281 32.1757 37.4727 31.8862 37.4334 31.5718L36.5783 24.7401C36.539 24.4257 36.2305 24.2055 35.8894 24.2482L26.0055 25.4852C25.6643 25.5279 25.4197 25.8173 25.459 26.1318L26.314 32.9634C26.3534 33.2779 26.6618 33.4981 27.003 33.4554ZM26.7658 26.5464L35.4141 25.4641L36.1266 31.1571L27.4783 32.2395L26.7658 26.5464Z" fill="#544955"/>
<path d="M12.6533 19.0616L15.1242 18.7523C15.4654 18.7096 15.7101 18.4201 15.6707 18.1057C15.6314 17.7913 15.3229 17.571 14.9817 17.6137L12.5108 17.923C12.1696 17.9657 11.9249 18.2552 11.9643 18.5696C12.0036 18.884 12.3121 19.1043 12.6533 19.0616Z" fill="#544955"/>
<path d="M12.9383 21.3387L22.8221 20.1017C23.1633 20.059 23.4079 19.7695 23.3686 19.4551C23.3292 19.1407 23.0208 18.9204 22.6796 18.9631L12.7958 20.2001C12.4546 20.2428 12.2099 20.5323 12.2493 20.8467C12.2886 21.161 12.5971 21.3814 12.9383 21.3387Z" fill="#544955"/>
<path d="M13.2232 23.6157L23.1071 22.3787C23.4483 22.336 23.6929 22.0465 23.6536 21.7321C23.6142 21.4177 23.3058 21.1974 22.9646 21.2401L13.0807 22.4771C12.7396 22.5198 12.4949 22.8093 12.5343 23.1237C12.5736 23.4381 12.8821 23.6584 13.2232 23.6157Z" fill="#544955"/>
<path d="M25.0081 17.5153L27.479 17.2061C27.8202 17.1634 28.0649 16.8739 28.0255 16.5595C27.9862 16.245 27.6775 16.0248 27.3365 16.0675L24.8656 16.3767C24.5244 16.4194 24.2797 16.7089 24.3191 17.0233C24.3584 17.3378 24.6669 17.558 25.0081 17.5153Z" fill="#544955"/>
<path d="M25.2931 19.7925L35.1769 18.5555C35.5181 18.5128 35.7627 18.2233 35.7234 17.9089C35.684 17.5944 35.3756 17.3742 35.0344 17.4169L25.1506 18.6539C24.8094 18.6966 24.5647 18.9861 24.6041 19.3005C24.6434 19.6147 24.9519 19.8352 25.2931 19.7925Z" fill="#544955"/>
<path d="M25.578 22.0694L35.4619 20.8324C35.8031 20.7897 36.0477 20.5003 36.0084 20.1858C35.969 19.8714 35.6606 19.6512 35.3194 19.6939L25.4355 20.9309C25.0943 20.9736 24.8497 21.263 24.889 21.5775C24.9284 21.8919 25.2368 22.1121 25.578 22.0694Z" fill="#544955"/>
<path d="M14.9332 37.2786L17.4042 36.9694C17.7454 36.9267 17.99 36.6372 17.9507 36.3228C17.9113 36.0084 17.6029 35.7881 17.2617 35.8308L14.7907 36.1401C14.4495 36.1828 14.2049 36.4722 14.2442 36.7867C14.2836 37.1011 14.592 37.3213 14.9332 37.2786Z" fill="#544955"/>
<path d="M15.2182 39.5558L25.1021 38.3188C25.4432 38.2761 25.6879 37.9866 25.6485 37.6722C25.6092 37.3577 25.3007 37.1375 24.9596 37.1802L15.0757 38.4172C14.7345 38.4599 14.4899 38.7494 14.5292 39.0638C14.5686 39.3782 14.877 39.5985 15.2182 39.5558Z" fill="#544955"/>
<path d="M15.5032 41.8329L25.387 40.5959C25.7282 40.5532 25.9729 40.2638 25.9335 39.9493C25.8942 39.6349 25.5857 39.4147 25.2445 39.4574L15.3607 40.6944C15.0195 40.7371 14.7749 41.0265 14.8142 41.341C14.8536 41.6554 15.162 41.8756 15.5032 41.8329Z" fill="#544955"/>
<path d="M27.288 35.7324L29.759 35.4231C30.1002 35.3804 30.3448 35.091 30.3055 34.7765C30.2661 34.4621 29.9577 34.2418 29.6165 34.2845L27.1455 34.5938C26.8043 34.6365 26.5597 34.926 26.599 35.2404C26.6384 35.5548 26.9468 35.7751 27.288 35.7324Z" fill="#544955"/>
<path d="M27.573 38.0095L37.4568 36.7725C37.798 36.7298 38.0427 36.4404 38.0033 36.1259C37.964 35.8115 37.6555 35.5913 37.3143 35.634L27.4305 36.871C27.0893 36.9137 26.8447 37.2031 26.884 37.5176C26.9234 37.832 27.2318 38.0522 27.573 38.0095Z" fill="#544955"/>
<path d="M27.858 40.2867L37.7418 39.0497C38.083 39.007 38.3277 38.7175 38.2883 38.4031C38.249 38.0887 37.9405 37.8684 37.5993 37.9111L27.7155 39.1481C27.3743 39.1908 27.1297 39.4803 27.169 39.7947C27.2084 40.1092 27.5168 40.3294 27.858 40.2867Z" fill="#544955"/>
<path d="M37.9811 0.858299L5.85908 4.87852C5.51789 4.92123 5.27324 5.2107 5.31259 5.52513L5.66883 8.37157L1.34466 8.91276C1.00347 8.95546 0.758815 9.24494 0.798168 9.55937L5.92811 50.5482C5.96746 50.8626 6.27591 51.0829 6.6171 51.0402L38.7393 47.0199C39.0805 46.9772 39.3252 46.6877 39.2858 46.3733L38.9296 43.5267L43.2537 42.9855C43.5949 42.9428 43.8396 42.6533 43.8002 42.3389L38.6703 1.35025C38.6308 1.03585 38.3223 0.815598 37.9811 0.858299ZM5.62096 13.0038C5.28036 13.0464 4.97108 12.8259 4.93177 12.5118C4.89249 12.1979 5.13764 11.9077 5.47844 11.865L7.9494 11.5558C8.28999 11.5131 8.5993 11.7338 8.6386 12.0479C8.67791 12.362 8.43271 12.6519 8.09192 12.6945L5.62096 13.0038ZM37.9789 45.9587L7.09234 49.8243L2.1049 9.97403L5.81133 9.51015L5.95388 10.6491L5.33594 10.7264C4.31395 10.8543 3.57842 11.7246 3.69629 12.6664C3.81417 13.6083 4.74147 14.2703 5.76346 14.1423L6.38139 14.065L7.66381 24.3117L7.04587 24.389C6.02389 24.5169 5.28835 25.3872 5.40623 26.329C5.5241 27.2709 6.4514 27.9328 7.47339 27.8049L8.09133 27.7276L9.37375 37.9742L8.75581 38.0516C7.73382 38.1795 6.99829 39.0498 7.11616 39.9916C7.23404 40.9334 8.16134 41.5954 9.18333 41.4675L9.80126 41.3902L10.4426 46.5141C10.4819 46.8286 10.7904 47.0488 11.1315 47.0061L37.6939 43.6817L37.9789 45.9587ZM7.33087 26.6662C6.99027 26.7088 6.68097 26.4881 6.64168 26.1742C6.60238 25.8601 6.84756 25.5701 7.18835 25.5274L9.65931 25.2182C9.9999 25.1755 10.3092 25.3962 10.3485 25.7103C10.3878 26.0242 10.1426 26.3143 9.80183 26.3569L7.33087 26.6662ZM9.04078 40.3286C8.70019 40.3712 8.39088 40.1505 8.3516 39.8366C8.31231 39.5227 8.55747 39.2325 8.89826 39.1898L11.3692 38.8805C11.7098 38.8379 12.0191 39.0586 12.0584 39.3727C12.0977 39.6866 11.8525 39.9767 11.5117 40.0193L9.04078 40.3286ZM42.4933 41.9243L11.6067 45.7899L11.0367 41.2352L11.6542 41.1579C12.6762 41.03 13.4118 40.1599 13.2939 39.2181C13.176 38.2762 12.2487 37.6141 11.2267 37.742L10.6092 37.8193L9.32679 27.5728L9.94433 27.4955C10.9663 27.3676 11.7019 26.4975 11.584 25.5557C11.4661 24.6138 10.5388 23.9517 9.51681 24.0796L8.89927 24.1569L7.61687 13.9104L8.23441 13.8331C9.2564 13.7052 9.99196 12.8351 9.87408 11.8933C9.75621 10.9514 8.82888 10.2893 7.8069 10.4172L7.18935 10.4945L6.61932 5.93979L37.5059 2.07419L42.4933 41.9243Z" fill="#544955"/>
</svg>
