<svg width="41" height="35" viewBox="0 0 41 35" fill="none" xmlns="http://www.w3.org/2000/svg">
<path d="M0.646779 16.1741H10.3171C10.6744 16.1741 10.9638 16.4381 10.9638 16.7639V18.1838C13.1036 16.4756 17.9172 12.5967 20.348 10.3509C22.5359 8.32934 23.3035 4.96171 23.5625 2.49243C23.6724 1.44428 24.41 0.560561 25.4878 0.185463C26.586 -0.196241 27.8063 0.0203257 28.6725 0.751413C28.7155 0.787507 28.7527 0.828791 28.7835 0.874086C28.9416 1.10717 32.6227 6.648 29.8432 12.3787C29.6988 12.6767 29.3167 12.8112 28.9902 12.6795C28.6635 12.5479 28.516 12.1995 28.6603 11.9017C31.0027 7.0724 28.1261 2.19825 27.728 1.56389C27.2248 1.17676 26.5666 1.07296 25.9491 1.28787C25.3248 1.50491 24.9142 1.99726 24.8503 2.60496C24.5714 5.26462 23.7237 8.91133 21.2688 11.1796C18.3852 13.844 12.215 18.7578 10.9638 19.75V30.9343V32.8876C11.316 32.9424 30.6976 34.2342 27.728 34.2342C27.728 34.2342 15.2441 34.8938 10.3171 33.6444C10.3171 33.9702 10.6744 34.2342 10.3171 34.2342H0.646779C0.289501 34.2342 5.60949e-06 33.9702 5.60949e-06 33.6444V16.7641C5.60949e-06 16.4381 0.289501 16.1741 0.646779 16.1741ZM1.29355 33.0544H9.6703V31.4318V19.4808V17.3536H1.29355V33.0544Z" fill="#544955"/>
<path d="M29.5979 33.582H38.1658C39.0154 33.582 39.7065 32.9518 39.7065 32.1771V17.1413C39.7065 16.3668 39.0154 15.7365 38.1658 15.7365H27.8288C26.9795 15.7365 26.2882 16.3666 26.2882 17.1413V29.2351C26.2882 29.5609 25.9987 29.8248 25.6415 29.8248C25.2842 29.8248 24.9947 29.5609 24.9947 29.2351V17.1413C24.9947 15.7162 26.266 14.5569 27.8288 14.5569H38.1658C39.7287 14.5569 41 15.7162 41 17.1413V32.1771C41 33.6022 39.7284 34.7615 38.1658 34.7615H27.0182C26.6609 34.7615 33.6412 35.5649 22.6029 34.2228C11.5646 32.8807 29.2406 33.582 29.5979 33.582Z" fill="#544955"/>
</svg>
