<svg width="10" height="7" viewBox="0 0 10 7" fill="none" xmlns="http://www.w3.org/2000/svg">
<path d="M4.35124 6.68094L0.215046 1.5514C-0.273086 0.947871 0.123629 3.44065e-07 0.864453 3.44065e-07H9.13683C9.30263 -0.000153886 9.46495 0.051546 9.60437 0.148909C9.74378 0.246272 9.85437 0.385171 9.92289 0.548972C9.99142 0.712774 10.015 0.894534 9.99074 1.07249C9.9665 1.25044 9.8955 1.41704 9.78624 1.55234L5.65005 6.68001C5.5691 6.78051 5.46927 6.86106 5.35726 6.91625C5.24526 6.97145 5.12366 7 5.00064 7C4.87763 7 4.75603 6.97145 4.64402 6.91625C4.53202 6.86106 4.43219 6.78051 4.35124 6.68001V6.68094Z" fill="#4E3027"/>
</svg>
